HIERARCHY
ROOT Hips
{
	OFFSET	0.00	0.00	0.00
	CHANNELS 6 Xposition Yposition Zposition Zrotation Xrotation Yrotation
	JOINT LeftUpLeg
	{
		OFFSET	 0.126116	-0.014019	-0.065224
		CHANNELS 3 Zrotation Xrotation Yrotation
		JOINT LeftLeg
		{
			OFFSET	 0.000000	 0.000000	 0.569914
			CHANNELS 3 Zrotation Xrotation Yrotation
			JOINT LeftFoot
			{
				OFFSET	 0.000000	 0.000000	 0.544423
				CHANNELS 3 Zrotation Xrotation Yrotation
				JOINT LeftToeBase
				{
					OFFSET	 0.000000	 0.000000	 0.207117
					CHANNELS 3 Zrotation Xrotation Yrotation
					End Site
					{
						OFFSET	 0.000000	 0.000000	 0.207117
					}
				}
			}
		}
	}
	JOINT RightUpLeg
	{
		OFFSET	-0.124023	-0.008373	-0.065224
		CHANNELS 3 Zrotation Xrotation Yrotation
		JOINT RightLeg
		{
			OFFSET	 0.000000	 0.000000	 0.570047
			CHANNELS 3 Zrotation Xrotation Yrotation
			JOINT RightFoot
			{
				OFFSET	 0.000000	 0.000000	 0.544354
				CHANNELS 3 Zrotation Xrotation Yrotation
				JOINT RightToeBase
				{
					OFFSET	 0.000000	 0.000000	 0.207540
					CHANNELS 3 Zrotation Xrotation Yrotation
					End Site
					{
						OFFSET	 0.000000	 0.000000	 0.207540
					}
				}
			}
		}
	}
	JOINT Spine
	{
		OFFSET	 0.000184	-0.007763	 0.117403
		CHANNELS 3 Zrotation Xrotation Yrotation
		JOINT Spine1
		{
			OFFSET	 0.000000	 0.000000	 0.137269
			CHANNELS 3 Zrotation Xrotation Yrotation
			JOINT Spine2
			{
				OFFSET	 0.000000	 0.000000	 0.156879
				CHANNELS 3 Zrotation Xrotation Yrotation
				JOINT LeftShoulder
				{
					OFFSET	 0.080501	-0.002496	 0.160144
					CHANNELS 3 Zrotation Xrotation Yrotation
					JOINT LeftArm
					{
						OFFSET	 0.000000	 0.000000	 0.164363
						CHANNELS 3 Zrotation Xrotation Yrotation
						JOINT LeftForeArm
						{
							OFFSET	 0.000000	 0.000000	 0.364576
							CHANNELS 3 Zrotation Xrotation Yrotation
							JOINT LeftHand
							{
								OFFSET	 0.000000	 0.000000	 0.360812
								CHANNELS 3 Zrotation Xrotation Yrotation
								JOINT LeftHandIndex1
								{
									OFFSET	 0.000000	 0.000000	 0.086006
									CHANNELS 3 Zrotation Xrotation Yrotation
									JOINT LeftHandIndex2
									{
										OFFSET	 0.000000	 0.000000	 0.047236
										CHANNELS 3 Zrotation Xrotation Yrotation
										JOINT LeftHandIndex3
										{
											OFFSET	-0.004284	-0.000551	 0.038166
											CHANNELS 3 Zrotation Xrotation Yrotation
											End Site
											{
												OFFSET	-0.004284	-0.000551	 0.038166
											}
										}
									}
								}
							}
						}
					}
				}
				JOINT Neck
				{
					OFFSET	 0.000000	 0.000000	 0.176489
					CHANNELS 3 Zrotation Xrotation Yrotation
					JOINT Head
					{
						OFFSET	 0.000000	-0.001747	 0.077940
						CHANNELS 3 Zrotation Xrotation Yrotation
						End Site
						{
							OFFSET	 0.000000	-0.001747	 0.077940
						}
					}
				}
				JOINT RightShoulder
				{
					OFFSET	-0.080363	 0.000306	 0.159706
					CHANNELS 3 Zrotation Xrotation Yrotation
					JOINT RightArm
					{
						OFFSET	 0.000000	 0.000000	 0.164196
						CHANNELS 3 Zrotation Xrotation Yrotation
						JOINT RightForeArm
						{
							OFFSET	 0.000000	 0.000000	 0.365611
							CHANNELS 3 Zrotation Xrotation Yrotation
							JOINT RightHand
							{
								OFFSET	 0.000000	 0.000000	 0.360648
								CHANNELS 3 Zrotation Xrotation Yrotation
								JOINT RightHandIndex1
								{
									OFFSET	 0.000000	 0.000000	 0.069977
									CHANNELS 3 Zrotation Xrotation Yrotation
									JOINT RightHandIndex2
									{
										OFFSET	 0.000000	 0.000000	 0.052305
										CHANNELS 3 Zrotation Xrotation Yrotation
										JOINT RightHandIndex3
										{
											OFFSET	 0.009002	-0.000782	 0.042196
											CHANNELS 3 Zrotation Xrotation Yrotation
											End Site
											{
												OFFSET	 0.009002	-0.000782	 0.042196
											}
										}
									}
								}
							}
						}
					}
				}
			}
		}
	}
}
MOTION
Frames:    12
Frame Time: 0.03333334
-1.024804	-11.030430	 1.194158	-10.220540	 16.727290	 3.780423	 3.245187	-35.130200	 174.991600	-0.667096	-43.524500	-0.041679	-0.535746	 80.368140	 0.674732	-2.346933	 34.871550	-0.145786	-0.695092	-36.465260	-179.652900	-3.163484	-43.777900	-1.049434	-1.571352	 80.309490	 0.325103	 2.406902	 19.554900	-0.181925	 0.794404	 15.298290	 1.424351	 0.763511	 2.096776	-1.815880	 0.226667	-3.561747	 0.021991	-125.925300	 89.280170	-141.608300	 51.526210	 64.691670	-60.496280	-11.103850	-1.277676	-22.983530	-6.362583	-39.391250	-6.958448	-5.918195	-12.672930	-1.878834	-5.213516	-0.193813	 3.566525	-1.378229	 35.397820	-2.634230	 0.846107	 0.290187	-3.832262	 0.081869	-6.236341	 1.023642	 93.678350	 85.907910	 171.994500	-63.046420	 73.091460	 73.799740	-0.990347	-16.667600	 36.335320	-15.663040	-39.971530	 12.533600	-10.274620	-10.767260	-39.209690	 5.070815	-0.697434	-9.399699	-2.350882	 35.473990	 5.254307
-1.024243	-11.051170	 1.196493	-9.922817	 17.699960	 3.777633	 3.610921	-34.864890	 175.516800	-1.693748	-43.068330	-0.538003	-0.865717	 81.254440	 0.389310	-2.353837	 33.958200	-0.124068	-0.759580	-35.895970	-179.432600	-2.828404	-42.813200	-0.867620	-1.597926	 81.753590	 0.636557	 2.406327	 20.208390	-0.168963	 0.787368	 14.924660	 1.192731	 0.722106	 1.686002	-1.900272	 0.159227	-4.090835	 0.016178	-125.144000	 89.269930	-142.410300	 57.455770	 66.644870	-62.346710	-9.780500	-1.495322	-20.527730	-5.547451	-38.786810	-6.895236	-5.494590	-12.032110	-0.953732	-5.213516	-0.193813	 3.566525	-1.378229	 35.397820	-2.634230	 0.777459	 0.023588	-3.739070	 0.056603	-7.025025	 1.382179	 93.693110	 85.967020	 172.054400	-59.159180	 76.159230	 67.641310	-3.171223	-14.027330	 26.586050	-17.972870	-39.330910	 12.409020	-9.648479	-9.487043	-38.668080	 5.070815	-0.697434	-9.399699	-2.350882	 35.473990	 5.254307
-1.024313	-11.068100	 1.196699	-9.968310	 18.409200	 3.832090	 3.559543	-34.976910	 175.620900	-2.060165	-43.422670	-0.832374	-1.044101	 82.061000	 0.216101	-2.347185	 34.838710	-0.145001	-0.748926	-35.496430	-179.455900	-2.422369	-42.371870	-0.589951	-1.492499	 82.908260	 0.910400	 2.405037	 21.277050	-0.147638	 0.978087	 14.531610	 1.060100	 0.827033	 1.279587	-1.957359	 0.083201	-4.572668	 0.008800	-121.806400	 89.188190	-145.660700	 62.116660	 67.846240	-63.980800	-8.331426	-1.712042	-18.816810	-4.631402	-38.111380	-6.823703	-4.783610	-11.363240	 0.660795	-5.213516	-0.193813	 3.566525	-1.378229	 35.397820	-2.634230	 0.739078	-0.320528	-3.501490	-0.072267	-7.644257	 1.203949	 93.665760	 86.034740	 172.210800	-49.614190	 78.921840	 55.460490	-4.352974	-12.578900	 21.296290	-20.373390	-38.649380	 12.242580	-9.079467	-8.309532	-38.166780	 5.070815	-0.697434	-9.399699	-2.350882	 35.473990	 5.254307
-1.024383	-11.082450	 1.197219	-10.380890	 18.916380	 3.941934	 3.556525	-34.869730	 175.673700	-2.168943	-43.713190	-0.924887	-1.120455	 82.505330	 0.184402	-2.337431	 36.029810	-0.173899	-0.734458	-35.287900	-179.577000	-2.338114	-42.177350	-0.524944	-1.476724	 83.334670	 0.994542	 2.404644	 21.545520	-0.142247	 1.214760	 14.244520	 0.910786	 1.018109	 0.919450	-1.790803	 0.127363	-4.990885	 0.013932	-115.401600	 88.992060	-152.004200	 65.127260	 68.926900	-64.717520	-7.528484	-1.828868	-17.584700	-3.960190	-37.300980	-6.742827	-4.093592	-10.649600	 2.263063	-5.213516	-0.193813	 3.566525	-1.378229	 35.397820	-2.634230	 0.842898	-0.539477	-3.261679	-0.112480	-8.257025	 1.295209	 93.956070	 86.299740	 172.037600	-37.831730	 80.431740	 41.557270	-4.678905	-11.665850	 18.612410	-21.803030	-37.847100	 12.058280	-8.768190	-7.589084	-37.938700	 5.070815	-0.697434	-9.399699	-2.350882	 35.473990	 5.254307
-1.024308	-11.094730	 1.199410	-10.863610	 19.447470	 3.919277	 3.576186	-34.788130	 175.764300	-2.494853	-43.541540	-1.134117	-1.226743	 82.383930	 0.061856	-2.329054	 36.975180	-0.197320	-0.833394	-35.460080	-179.400400	-2.590326	-42.095210	-0.755068	-1.658857	 83.398970	 0.923409	 2.404543	 21.611670	-0.140923	 1.317419	 13.952980	 0.811531	 1.140572	 0.711949	-1.514401	 0.253975	-5.227020	 0.028302	-109.296400	 88.708210	-158.146500	 66.918950	 69.720440	-65.174490	-7.095266	-1.913343	-16.675990	-3.363214	-36.302240	-6.648811	-3.886971	-10.840310	 2.751815	-5.213516	-0.193813	 3.566525	-1.378229	 35.397820	-2.634230	 0.940761	-0.715147	-2.877004	-0.016259	-8.540647	 1.586053	 94.546680	 86.633610	 171.458200	-28.657210	 80.812030	 30.755960	-4.950930	-11.236140	 17.441470	-22.643410	-36.853080	 11.866780	-8.671727	-7.611110	-37.692990	 5.070815	-0.697434	-9.399699	-2.350882	 35.473990	 5.254307
-1.025068	-11.104630	 1.201471	-11.237970	 19.789270	 3.880560	 3.573370	-34.495610	 175.789700	-2.701142	-43.275060	-1.270857	-1.298870	 82.189750	-0.022136	-2.323170	 37.601630	-0.213108	-0.825110	-35.339080	-179.260200	-2.898033	-41.900380	-0.960439	-1.822900	 83.379220	 0.855111	 2.404589	 21.579790	-0.141566	 1.366462	 13.706260	 0.833067	 1.217135	 0.619462	-1.355533	 0.362205	-5.321966	 0.040660	-107.282800	 88.587360	-160.231000	 67.538330	 70.033160	-65.428670	-6.295235	-2.142937	-16.162770	-2.284347	-35.250950	-6.549475	-4.005954	-11.028310	 2.473082	-5.213516	-0.193813	 3.566525	-1.378229	 35.397820	-2.634230	 1.012391	-0.803463	-2.578254	 0.077683	-8.632149	 1.732677	 94.868520	 86.795150	 171.147800	-23.952150	 80.706150	 25.068120	-5.214561	-11.226200	 17.243880	-23.176160	-35.803060	 11.697450	-8.593606	-7.708063	-37.438400	 5.070815	-0.697434	-9.399699	-2.350882	 35.473990	 5.254307
-1.027037	-11.113650	 1.203167	-11.287250	 19.982510	 3.845793	 3.564986	-34.172120	 175.805000	-2.617829	-42.998150	-1.211356	-1.317067	 82.242230	 0.038420	-2.318570	 38.072120	-0.225104	-0.713449	-34.826700	-179.234000	-2.944900	-41.335700	-0.931877	-1.781053	 83.551100	 0.851569	 2.404969	 21.328550	-0.146604	 1.319433	 13.357790	 0.853186	 1.215602	 0.558467	-1.309179	 0.444181	-5.369801	 0.050046	-106.845200	 88.582800	-160.769300	 67.096650	 70.037200	-65.046520	-6.626910	-2.083573	-16.459280	-2.396048	-33.997040	-6.455261	-4.155324	-11.160610	 2.124274	-5.213516	-0.193813	 3.566525	-1.378229	 35.397820	-2.634230	 1.066757	-0.757520	-2.531345	 0.191362	-8.765720	 1.903639	 94.911000	 86.823860	 171.120200	-22.223070	 80.441880	 22.798640	-5.236226	-11.265820	 17.429240	-23.315960	-34.576450	 11.524360	-8.526327	-7.819572	-37.200200	 5.070815	-0.697434	-9.399699	-2.350882	 35.473990	 5.254307
-1.030172	-11.120870	 1.204598	-10.978120	 20.003610	 3.810653	 3.411824	-33.945040	 175.653600	-2.341466	-42.824200	-1.104684	-1.314658	 82.342240	 0.136515	-2.316218	 38.307040	-0.231142	-0.746395	-34.009920	-179.400000	-2.662786	-40.522240	-0.766600	-1.750844	 83.653840	 1.023159	 2.405284	 21.098960	-0.151206	 1.149184	 13.097700	 0.861823	 1.095305	 0.420656	-1.388949	 0.483820	-5.417213	 0.054711	-107.563000	 88.650990	-160.096400	 65.562670	 69.935420	-64.232900	-7.287093	-2.058564	-17.473190	-2.517598	-32.590360	-6.357214	-4.657524	-11.972850	 0.975168	-5.213516	-0.193813	 3.566525	-1.378229	 35.397820	-2.634230	 1.059242	-0.827728	-2.558605	 0.301508	-8.772204	 1.813307	 94.847960	 86.737810	 171.090700	-22.975510	 80.302620	 23.841560	-5.085081	-11.369890	 17.730820	-23.478580	-33.213790	 11.342700	-8.512962	-7.898823	-37.113400	 5.070815	-0.697434	-9.399699	-2.350882	 35.473990	 5.254307
-1.033154	-11.126560	 1.205529	-10.931250	 19.921870	 3.852605	 3.232881	-33.464990	 175.463300	-2.222543	-42.656040	-1.126293	-1.346342	 82.364590	 0.131205	-2.315741	 38.354330	-0.232363	-0.790737	-33.482290	-179.511800	-2.633308	-39.967750	-0.774667	-1.747888	 83.774300	 1.018168	 2.405508	 20.925850	-0.154669	 1.144539	 12.846850	 0.922322	 1.084675	 0.315770	-1.431560	 0.471643	-5.406322	 0.053290	-108.982300	 88.743520	-158.663500	 63.084390	 69.872850	-63.016530	-8.257747	-2.045319	-18.503860	-2.564666	-31.090680	-6.258252	-5.191343	-13.383030	-0.184306	-5.213516	-0.193813	 3.566525	-1.378229	 35.397820	-2.634230	 1.053696	-0.873097	-2.618019	 0.289989	-8.691169	 1.723427	 94.645030	 86.643750	 171.298500	-25.462590	 80.170890	 26.875300	-4.877193	-11.526450	 18.224070	-23.522560	-31.751160	 11.168910	-8.561895	-7.925946	-37.211030	 5.070815	-0.697434	-9.399699	-2.350882	 35.473990	 5.254307
-1.036257	-11.131590	 1.206146	-11.047050	 19.813530	 3.782386	 3.192620	-32.695300	 175.399700	-2.314856	-42.196470	-1.205689	-1.419394	 82.281900	 0.086089	-2.315071	 38.420140	-0.234060	-0.851844	-32.969430	-179.534900	-2.716563	-39.585570	-0.862504	-1.832966	 83.964340	 1.007721	 2.405619	 20.838390	-0.156416	 1.205779	 12.554780	 1.135677	 1.121243	 0.247986	-1.399155	 0.467334	-5.377800	 0.052688	-110.498600	 88.824460	-157.119100	 60.231950	 69.693080	-61.426870	-9.540141	-1.897703	-19.779410	-3.003348	-29.387980	-6.157403	-6.152303	-15.004060	-2.215796	-5.213516	-0.193813	 3.566525	-1.378229	 35.397820	-2.634230	 1.077225	-0.911933	-2.737690	 0.269069	-8.585018	 1.750808	 94.481870	 86.574910	 171.482900	-31.728830	 79.726070	 33.873680	-5.121730	-11.799480	 19.006310	-23.512300	-30.097270	 10.990540	-8.546691	-7.997140	-37.125620	 5.070815	-0.697434	-9.399699	-2.350882	 35.473990	 5.254307
-1.039676	-11.135970	 1.206447	-10.848010	 19.711420	 3.674125	 3.177110	-31.868870	 175.317700	-2.219641	-41.669200	-1.142851	-1.448689	 82.303920	 0.146319	-2.313964	 38.527920	-0.236847	-0.959881	-32.216450	-179.585500	-2.614949	-39.323670	-0.854962	-1.825141	 84.150110	 1.019291	 2.405719	 20.755910	-0.158059	 1.173462	 12.269750	 1.246642	 1.106378	 0.201038	-1.423083	 0.501549	-5.370366	 0.056513	-111.833400	 88.909440	-155.855600	 57.967610	 69.323800	-60.252430	-10.488020	-1.747285	-21.359530	-3.386707	-27.493070	-6.052725	-6.673645	-15.943010	-3.268710	-5.213516	-0.193813	 3.566525	-1.378229	 35.397820	-2.634230	 1.105826	-0.741128	-2.861962	 0.343318	-8.732760	 2.007218	 94.370540	 86.531180	 171.616900	-38.402770	 79.008450	 41.306430	-5.040102	-12.094780	 20.267110	-23.040520	-28.249500	 10.818380	-8.543688	-8.163105	-37.004220	 5.070815	-0.697434	-9.399699	-2.350882	 35.473990	 5.254307
-1.042541	-11.138800	 1.206019	-10.565720	 19.517980	 3.571420	 3.177273	-31.361730	 175.266600	-2.128867	-41.386080	-1.080196	-1.461519	 82.410200	 0.204683	-2.312578	 38.663460	-0.240359	-1.018953	-31.562930	-179.657200	-2.433213	-39.145080	-0.771088	-1.749728	 84.371480	 1.060127	 2.405584	 20.866100	-0.155856	 1.146470	 12.026280	 1.276237	 1.087747	 0.196364	-1.435096	 0.512634	-5.344911	 0.057649	-113.155900	 88.976650	-154.571100	 56.776340	 68.896750	-59.963170	-10.794680	-1.719490	-22.509910	-3.366356	-25.787660	-5.964006	-6.703862	-16.078190	-3.321002	-5.213516	-0.193813	 3.566525	-1.378229	 35.397820	-2.634230	 1.112315	-0.653871	-2.905867	 0.371707	-8.765255	 2.129580	 94.310050	 86.514290	 171.701000	-43.113640	 78.283650	 46.606190	-4.878426	-12.387560	 21.547650	-22.592510	-26.575310	 10.672440	-8.660797	-8.609886	-36.975690	 5.070815	-0.697434	-9.399699	-2.350882	 35.473990	 5.254307
